<?xml version="1.0" encoding="UTF-8" standalone="no"?>
<!DOCTYPE svg PUBLIC "-//W3C//DTD SVG 1.1//EN"
 "http://www.w3.org/Graphics/SVG/1.1/DTD/svg11.dtd">
<!-- Generated by graphviz version 2.26.3 (20100126.1600)
 -->
<!-- Title: controllers_diagram Pages: 1 -->
<svg width="788pt" height="679pt"
 viewBox="0.00 0.00 788.00 678.50" xmlns="http://www.w3.org/2000/svg" xmlns:xlink="http://www.w3.org/1999/xlink">
<g id="graph1" class="graph" transform="scale(1 1) rotate(0) translate(4 674.503)">
<title>controllers_diagram</title>
<polygon fill="white" stroke="white" points="-4,5 -4,-674.503 785,-674.503 785,5 -4,5"/>
<!-- _diagram_info -->
<g id="node1" class="node"><title>_diagram_info</title>
<text text-anchor="start" x="537" y="-606.3" font-family="Times Roman,serif" font-size="13.00">Controllers diagram</text>
<text text-anchor="start" x="537" y="-589.3" font-family="Times Roman,serif" font-size="13.00">Date: Aug 05 2013 &#45; 17:03</text>
<text text-anchor="start" x="537" y="-572.3" font-family="Times Roman,serif" font-size="13.00">Migration version: 20130801072934</text>
<text text-anchor="start" x="537" y="-555.3" font-family="Times Roman,serif" font-size="13.00">Generated by RailRoady 1.1.1</text>
<text text-anchor="start" x="537" y="-538.3" font-family="Times Roman,serif" font-size="13.00">http://railroady.prestonlee.com</text>
</g>
<!-- PagesController -->
<g id="node2" class="node"><title>PagesController</title>
<polyline fill="none" stroke="black" points="13,-265.296 114,-265.296 "/>
<path fill="none" stroke="black" d="M114,-265.296C120,-265.296 126,-271.296 126,-277.296"/>
<polyline fill="none" stroke="black" points="126,-277.296 126,-463.296 "/>
<path fill="none" stroke="black" d="M126,-463.296C126,-469.296 120,-475.296 114,-475.296"/>
<polyline fill="none" stroke="black" points="114,-475.296 13,-475.296 "/>
<path fill="none" stroke="black" d="M13,-475.296C7,-475.296 1,-469.296 1,-463.296"/>
<polyline fill="none" stroke="black" points="1,-463.296 1,-277.296 "/>
<path fill="none" stroke="black" d="M1,-277.296C1,-271.296 7,-265.296 13,-265.296"/>
<text text-anchor="middle" x="63.5" y="-458.696" font-family="Times Roman,serif" font-size="14.00">PagesController</text>
<polyline fill="none" stroke="black" points="1,-449.296 126,-449.296 "/>
<text text-anchor="start" x="9" y="-432.696" font-family="Times Roman,serif" font-size="14.00">create</text>
<text text-anchor="start" x="9" y="-414.696" font-family="Times Roman,serif" font-size="14.00">edit</text>
<text text-anchor="start" x="9" y="-396.696" font-family="Times Roman,serif" font-size="14.00">index</text>
<text text-anchor="start" x="9" y="-378.696" font-family="Times Roman,serif" font-size="14.00">new</text>
<text text-anchor="start" x="9" y="-360.696" font-family="Times Roman,serif" font-size="14.00">show</text>
<text text-anchor="start" x="9" y="-342.696" font-family="Times Roman,serif" font-size="14.00">update</text>
<polyline fill="none" stroke="black" points="1,-333.296 126,-333.296 "/>
<polyline fill="none" stroke="black" points="1,-309.296 126,-309.296 "/>
<text text-anchor="start" x="9" y="-292.696" font-family="Times Roman,serif" font-size="14.00">_layout</text>
<text text-anchor="start" x="9" y="-274.696" font-family="Times Roman,serif" font-size="14.00">pages_params</text>
</g>
<!-- UsersController -->
<g id="node3" class="node"><title>UsersController</title>
<polyline fill="none" stroke="black" points="406.361,-304.69 506.361,-304.69 "/>
<path fill="none" stroke="black" d="M506.361,-304.69C512.361,-304.69 518.361,-310.69 518.361,-316.69"/>
<polyline fill="none" stroke="black" points="518.361,-316.69 518.361,-412.69 "/>
<path fill="none" stroke="black" d="M518.361,-412.69C518.361,-418.69 512.361,-424.69 506.361,-424.69"/>
<polyline fill="none" stroke="black" points="506.361,-424.69 406.361,-424.69 "/>
<path fill="none" stroke="black" d="M406.361,-424.69C400.361,-424.69 394.361,-418.69 394.361,-412.69"/>
<polyline fill="none" stroke="black" points="394.361,-412.69 394.361,-316.69 "/>
<path fill="none" stroke="black" d="M394.361,-316.69C394.361,-310.69 400.361,-304.69 406.361,-304.69"/>
<text text-anchor="middle" x="456.361" y="-408.09" font-family="Times Roman,serif" font-size="14.00">UsersController</text>
<polyline fill="none" stroke="black" points="394.361,-398.69 518.361,-398.69 "/>
<text text-anchor="start" x="402.361" y="-382.09" font-family="Times Roman,serif" font-size="14.00">create</text>
<text text-anchor="start" x="402.361" y="-364.09" font-family="Times Roman,serif" font-size="14.00">new</text>
<polyline fill="none" stroke="black" points="394.361,-354.69 518.361,-354.69 "/>
<polyline fill="none" stroke="black" points="394.361,-330.69 518.361,-330.69 "/>
<text text-anchor="start" x="402.361" y="-314.09" font-family="Times Roman,serif" font-size="14.00">_layout</text>
</g>
<!-- BookingsController -->
<g id="node4" class="node"><title>BookingsController</title>
<polyline fill="none" stroke="black" points="329.459,-1.5 475.459,-1.5 "/>
<path fill="none" stroke="black" d="M475.459,-1.5C481.459,-1.5 487.459,-7.5 487.459,-13.5"/>
<polyline fill="none" stroke="black" points="487.459,-13.5 487.459,-253.5 "/>
<path fill="none" stroke="black" d="M487.459,-253.5C487.459,-259.5 481.459,-265.5 475.459,-265.5"/>
<polyline fill="none" stroke="black" points="475.459,-265.5 329.459,-265.5 "/>
<path fill="none" stroke="black" d="M329.459,-265.5C323.459,-265.5 317.459,-259.5 317.459,-253.5"/>
<polyline fill="none" stroke="black" points="317.459,-253.5 317.459,-13.5 "/>
<path fill="none" stroke="black" d="M317.459,-13.5C317.459,-7.5 323.459,-1.5 329.459,-1.5"/>
<text text-anchor="middle" x="402.459" y="-248.9" font-family="Times Roman,serif" font-size="14.00">BookingsController</text>
<polyline fill="none" stroke="black" points="317.459,-239.5 487.459,-239.5 "/>
<text text-anchor="start" x="325.459" y="-222.9" font-family="Times Roman,serif" font-size="14.00">create</text>
<text text-anchor="start" x="325.459" y="-204.9" font-family="Times Roman,serif" font-size="14.00">index</text>
<text text-anchor="start" x="325.459" y="-186.9" font-family="Times Roman,serif" font-size="14.00">new</text>
<text text-anchor="start" x="325.459" y="-168.9" font-family="Times Roman,serif" font-size="14.00">query</text>
<text text-anchor="start" x="325.459" y="-150.9" font-family="Times Roman,serif" font-size="14.00">search</text>
<text text-anchor="start" x="325.459" y="-132.9" font-family="Times Roman,serif" font-size="14.00">show</text>
<text text-anchor="start" x="325.459" y="-114.9" font-family="Times Roman,serif" font-size="14.00">update</text>
<polyline fill="none" stroke="black" points="317.459,-105.5 487.459,-105.5 "/>
<polyline fill="none" stroke="black" points="317.459,-81.5 487.459,-81.5 "/>
<text text-anchor="start" x="325.459" y="-64.9" font-family="Times Roman,serif" font-size="14.00">_layout</text>
<text text-anchor="start" x="325.459" y="-46.9" font-family="Times Roman,serif" font-size="14.00">bookings_params</text>
<text text-anchor="start" x="325.459" y="-28.9" font-family="Times Roman,serif" font-size="14.00">check_booking_permit</text>
<text text-anchor="start" x="325.459" y="-10.9" font-family="Times Roman,serif" font-size="14.00">present_user</text>
</g>
<!-- SessionsController -->
<g id="node5" class="node"><title>SessionsController</title>
<polyline fill="none" stroke="black" points="57.6975,-531.003 177.697,-531.003 "/>
<path fill="none" stroke="black" d="M177.697,-531.003C183.697,-531.003 189.697,-537.003 189.697,-543.003"/>
<polyline fill="none" stroke="black" points="189.697,-543.003 189.697,-657.003 "/>
<path fill="none" stroke="black" d="M189.697,-657.003C189.697,-663.003 183.697,-669.003 177.697,-669.003"/>
<polyline fill="none" stroke="black" points="177.697,-669.003 57.6975,-669.003 "/>
<path fill="none" stroke="black" d="M57.6975,-669.003C51.6975,-669.003 45.6975,-663.003 45.6975,-657.003"/>
<polyline fill="none" stroke="black" points="45.6975,-657.003 45.6975,-543.003 "/>
<path fill="none" stroke="black" d="M45.6975,-543.003C45.6975,-537.003 51.6975,-531.003 57.6975,-531.003"/>
<text text-anchor="middle" x="117.697" y="-652.403" font-family="Times Roman,serif" font-size="14.00">SessionsController</text>
<polyline fill="none" stroke="black" points="45.6975,-643.003 189.697,-643.003 "/>
<text text-anchor="start" x="53.6975" y="-626.403" font-family="Times Roman,serif" font-size="14.00">create</text>
<text text-anchor="start" x="53.6975" y="-608.403" font-family="Times Roman,serif" font-size="14.00">destroy</text>
<text text-anchor="start" x="53.6975" y="-590.403" font-family="Times Roman,serif" font-size="14.00">new</text>
<polyline fill="none" stroke="black" points="45.6975,-581.003 189.697,-581.003 "/>
<polyline fill="none" stroke="black" points="45.6975,-557.003 189.697,-557.003 "/>
<text text-anchor="start" x="53.6975" y="-540.403" font-family="Times Roman,serif" font-size="14.00">_layout</text>
</g>
<!-- ApplicationController -->
<g id="node6" class="node"><title>ApplicationController</title>
<polyline fill="none" stroke="black" points="191.365,-316.415 328.365,-316.415 "/>
<path fill="none" stroke="black" d="M328.365,-316.415C334.365,-316.415 340.365,-322.415 340.365,-328.415"/>
<polyline fill="none" stroke="black" points="340.365,-328.415 340.365,-406.415 "/>
<path fill="none" stroke="black" d="M340.365,-406.415C340.365,-412.415 334.365,-418.415 328.365,-418.415"/>
<polyline fill="none" stroke="black" points="328.365,-418.415 191.365,-418.415 "/>
<path fill="none" stroke="black" d="M191.365,-418.415C185.365,-418.415 179.365,-412.415 179.365,-406.415"/>
<polyline fill="none" stroke="black" points="179.365,-406.415 179.365,-328.415 "/>
<path fill="none" stroke="black" d="M179.365,-328.415C179.365,-322.415 185.365,-316.415 191.365,-316.415"/>
<text text-anchor="middle" x="259.865" y="-401.815" font-family="Times Roman,serif" font-size="14.00">ApplicationController</text>
<polyline fill="none" stroke="black" points="179.365,-392.415 340.365,-392.415 "/>
<text text-anchor="start" x="187.365" y="-375.815" font-family="Times Roman,serif" font-size="14.00">not_authenticated</text>
<polyline fill="none" stroke="black" points="179.365,-366.415 340.365,-366.415 "/>
<polyline fill="none" stroke="black" points="179.365,-342.415 340.365,-342.415 "/>
<text text-anchor="start" x="187.365" y="-325.815" font-family="Times Roman,serif" font-size="14.00">_layout</text>
</g>
<!-- ApplicationController&#45;&gt;PagesController -->
<g id="edge2" class="edge"><title>ApplicationController&#45;&gt;PagesController</title>
<path fill="none" stroke="black" d="M179.146,-368.599C161.48,-368.858 143.035,-369.129 126.199,-369.376"/>
</g>
<!-- ApplicationController&#45;&gt;UsersController -->
<g id="edge4" class="edge"><title>ApplicationController&#45;&gt;UsersController</title>
<path fill="none" stroke="black" d="M340.638,-366.295C358.527,-366.047 377.215,-365.788 394.225,-365.552"/>
</g>
<!-- ApplicationController&#45;&gt;BookingsController -->
<g id="edge6" class="edge"><title>ApplicationController&#45;&gt;BookingsController</title>
<path fill="none" stroke="black" d="M290.981,-316.37C300.241,-301.18 310.844,-283.787 321.746,-265.904"/>
</g>
<!-- ApplicationController&#45;&gt;SessionsController -->
<g id="edge8" class="edge"><title>ApplicationController&#45;&gt;SessionsController</title>
<path fill="none" stroke="black" d="M228.666,-418.457C208.477,-451.487 181.941,-494.899 159.881,-530.99"/>
</g>
<!-- StaticController -->
<g id="node7" class="node"><title>StaticController</title>
<polyline fill="none" stroke="black" points="354.02,-547.908 455.02,-547.908 "/>
<path fill="none" stroke="black" d="M455.02,-547.908C461.02,-547.908 467.02,-553.908 467.02,-559.908"/>
<polyline fill="none" stroke="black" points="467.02,-559.908 467.02,-635.908 "/>
<path fill="none" stroke="black" d="M467.02,-635.908C467.02,-641.908 461.02,-647.908 455.02,-647.908"/>
<polyline fill="none" stroke="black" points="455.02,-647.908 354.02,-647.908 "/>
<path fill="none" stroke="black" d="M354.02,-647.908C348.02,-647.908 342.02,-641.908 342.02,-635.908"/>
<polyline fill="none" stroke="black" points="342.02,-635.908 342.02,-559.908 "/>
<path fill="none" stroke="black" d="M342.02,-559.908C342.02,-553.908 348.02,-547.908 354.02,-547.908"/>
<text text-anchor="middle" x="404.52" y="-631.308" font-family="Times Roman,serif" font-size="14.00">StaticController</text>
<polyline fill="none" stroke="black" points="342.02,-621.908 467.02,-621.908 "/>
<polyline fill="none" stroke="black" points="342.02,-597.908 467.02,-597.908 "/>
<polyline fill="none" stroke="black" points="342.02,-573.908 467.02,-573.908 "/>
<text text-anchor="start" x="350.02" y="-557.308" font-family="Times Roman,serif" font-size="14.00">_layout</text>
</g>
<!-- ApplicationController&#45;&gt;StaticController -->
<g id="edge10" class="edge"><title>ApplicationController&#45;&gt;StaticController</title>
<path fill="none" stroke="black" d="M291.969,-418.569C316.107,-457.031 349.009,-509.457 373.004,-547.69"/>
</g>
<!-- ClientsController -->
<g id="node8" class="node"><title>ClientsController</title>
<polyline fill="none" stroke="black" points="61.0404,-30.5355 170.04,-30.5355 "/>
<path fill="none" stroke="black" d="M170.04,-30.5355C176.04,-30.5355 182.04,-36.5355 182.04,-42.5355"/>
<polyline fill="none" stroke="black" points="182.04,-42.5355 182.04,-228.535 "/>
<path fill="none" stroke="black" d="M182.04,-228.535C182.04,-234.535 176.04,-240.535 170.04,-240.535"/>
<polyline fill="none" stroke="black" points="170.04,-240.535 61.0404,-240.535 "/>
<path fill="none" stroke="black" d="M61.0404,-240.535C55.0404,-240.535 49.0404,-234.535 49.0404,-228.535"/>
<polyline fill="none" stroke="black" points="49.0404,-228.535 49.0404,-42.5355 "/>
<path fill="none" stroke="black" d="M49.0404,-42.5355C49.0404,-36.5355 55.0404,-30.5355 61.0404,-30.5355"/>
<text text-anchor="middle" x="115.54" y="-223.935" font-family="Times Roman,serif" font-size="14.00">ClientsController</text>
<polyline fill="none" stroke="black" points="49.0404,-214.535 182.04,-214.535 "/>
<text text-anchor="start" x="57.0404" y="-197.935" font-family="Times Roman,serif" font-size="14.00">create</text>
<text text-anchor="start" x="57.0404" y="-179.935" font-family="Times Roman,serif" font-size="14.00">edit</text>
<text text-anchor="start" x="57.0404" y="-161.935" font-family="Times Roman,serif" font-size="14.00">index</text>
<text text-anchor="start" x="57.0404" y="-143.935" font-family="Times Roman,serif" font-size="14.00">new</text>
<text text-anchor="start" x="57.0404" y="-125.935" font-family="Times Roman,serif" font-size="14.00">show</text>
<text text-anchor="start" x="57.0404" y="-107.935" font-family="Times Roman,serif" font-size="14.00">update</text>
<polyline fill="none" stroke="black" points="49.0404,-98.5355 182.04,-98.5355 "/>
<polyline fill="none" stroke="black" points="49.0404,-74.5355 182.04,-74.5355 "/>
<text text-anchor="start" x="57.0404" y="-57.9355" font-family="Times Roman,serif" font-size="14.00">_layout</text>
<text text-anchor="start" x="57.0404" y="-39.9355" font-family="Times Roman,serif" font-size="14.00">client_params</text>
</g>
<!-- ApplicationController&#45;&gt;ClientsController -->
<g id="edge12" class="edge"><title>ApplicationController&#45;&gt;ClientsController</title>
<path fill="none" stroke="black" d="M228.014,-316.241C214.151,-293.968 197.365,-266.999 181.039,-240.769"/>
</g>
</g>
</svg>
