<?xml version="1.0" encoding="UTF-8" standalone="no"?>
<!DOCTYPE svg PUBLIC "-//W3C//DTD SVG 1.1//EN"
 "http://www.w3.org/Graphics/SVG/1.1/DTD/svg11.dtd">
<!-- Generated by graphviz version 2.26.3 (20100126.1600)
 -->
<!-- Title: models_diagram Pages: 1 -->
<svg width="484pt" height="250pt"
 viewBox="0.00 0.00 484.00 250.00" xmlns="http://www.w3.org/2000/svg" xmlns:xlink="http://www.w3.org/1999/xlink">
<g id="graph1" class="graph" transform="scale(1 1) rotate(0) translate(4 246)">
<title>models_diagram</title>
<polygon fill="white" stroke="white" points="-4,5 -4,-246 481,-246 481,5 -4,5"/>
<!-- _diagram_info -->
<g id="node1" class="node"><title>_diagram_info</title>
<text text-anchor="start" x="8" y="-225.8" font-family="Times Roman,serif" font-size="13.00">Models diagram</text>
<text text-anchor="start" x="8" y="-208.8" font-family="Times Roman,serif" font-size="13.00">Date: Aug 05 2013 &#45; 17:03</text>
<text text-anchor="start" x="8" y="-191.8" font-family="Times Roman,serif" font-size="13.00">Migration version: 20130801072934</text>
<text text-anchor="start" x="8" y="-174.8" font-family="Times Roman,serif" font-size="13.00">Generated by RailRoady 1.1.1</text>
<text text-anchor="start" x="8" y="-157.8" font-family="Times Roman,serif" font-size="13.00">http://railroady.prestonlee.com</text>
</g>
<!-- User -->
<g id="node2" class="node"><title>User</title>
<ellipse fill="none" stroke="black" cx="238" cy="-93" rx="33.9411" ry="18.3848"/>
<text text-anchor="middle" x="238" y="-89.4" font-family="Times Roman,serif" font-size="14.00">User</text>
</g>
<!-- Booking -->
<g id="node5" class="node"><title>Booking</title>
<ellipse fill="none" stroke="black" cx="371" cy="-19" rx="50.9117" ry="18.3848"/>
<text text-anchor="middle" x="371" y="-15.4" font-family="Times Roman,serif" font-size="14.00">Booking</text>
</g>
<!-- User&#45;&gt;Booking -->
<g id="edge2" class="edge"><title>User&#45;&gt;Booking</title>
<path fill="none" stroke="#db6c46" d="M269.033,-75.7337C288.467,-64.9204 313.615,-50.9283 334.074,-39.5454"/>
<ellipse fill="none" stroke="#db6c46" cx="265.273" cy="-77.8255" rx="4.00002" ry="4.00002"/>
<polygon fill="#db6c46" stroke="#db6c46" points="334.076,-39.5442 345.002,-38.6145 338.445,-37.1132 342.814,-34.6822 342.814,-34.6822 342.814,-34.6822 338.445,-37.1132 340.627,-30.7499 334.076,-39.5442 334.076,-39.5442"/>
</g>
<!-- Page -->
<g id="node3" class="node"><title>Page</title>
<ellipse fill="none" stroke="black" cx="325" cy="-93" rx="34.8574" ry="18.3848"/>
<text text-anchor="middle" x="325" y="-89.4" font-family="Times Roman,serif" font-size="14.00">Page</text>
</g>
<!-- Page&#45;&gt;Booking -->
<g id="edge6" class="edge"><title>Page&#45;&gt;Booking</title>
<path fill="none" stroke="#effb4e" d="M341.437,-66.5574C345.585,-59.8856 350.043,-52.7139 354.207,-46.0143"/>
<polygon fill="#effb4e" stroke="#effb4e" points="341.415,-66.5938 332.314,-72.7109 338.775,-70.8402 336.135,-75.0867 336.135,-75.0867 336.135,-75.0867 338.775,-70.8402 339.957,-77.4624 341.415,-66.5938 341.415,-66.5938"/>
<polygon fill="#effb4e" stroke="#effb4e" points="354.368,-45.7553 363.469,-39.6382 357.008,-41.5089 359.648,-37.2625 359.648,-37.2625 359.648,-37.2625 357.008,-41.5089 355.826,-34.8867 354.368,-45.7553 354.368,-45.7553"/>
</g>
<!-- Client -->
<g id="node4" class="node"><title>Client</title>
<ellipse fill="none" stroke="black" cx="418" cy="-93" rx="39.8075" ry="18.3848"/>
<text text-anchor="middle" x="418" y="-89.4" font-family="Times Roman,serif" font-size="14.00">Client</text>
</g>
<!-- Client&#45;&gt;Booking -->
<g id="edge10" class="edge"><title>Client&#45;&gt;Booking</title>
<path fill="none" stroke="#ce44de" d="M402.33,-68.3273C397.797,-61.1911 392.826,-53.364 388.205,-46.0889"/>
<ellipse fill="none" stroke="#ce44de" cx="404.478" cy="-71.7101" rx="4.00002" ry="4.00002"/>
<polygon fill="#ce44de" stroke="#ce44de" points="387.961,-45.7038 386.398,-34.8498 385.28,-41.4831 382.599,-37.2625 382.599,-37.2625 382.599,-37.2625 385.28,-41.4831 378.801,-39.6751 387.961,-45.7038 387.961,-45.7038"/>
</g>
<!-- ActiveRecord::Base -->
<g id="node7" class="node"><title>ActiveRecord::Base</title>
<ellipse fill="none" stroke="black" cx="372" cy="-195" rx="104.151" ry="18.3848"/>
<text text-anchor="middle" x="372" y="-191.4" font-family="Times Roman,serif" font-size="14.00">ActiveRecord::Base</text>
</g>
<!-- ActiveRecord::Base&#45;&gt;User -->
<g id="edge4" class="edge"><title>ActiveRecord::Base&#45;&gt;User</title>
<path fill="none" stroke="black" d="M348.043,-176.764C322.298,-157.167 281.847,-126.376 257.824,-108.09"/>
</g>
<!-- ActiveRecord::Base&#45;&gt;Page -->
<g id="edge8" class="edge"><title>ActiveRecord::Base&#45;&gt;Page</title>
<path fill="none" stroke="black" d="M363.379,-176.292C354.846,-157.773 341.866,-129.603 333.408,-111.247"/>
</g>
<!-- ActiveRecord::Base&#45;&gt;Client -->
<g id="edge12" class="edge"><title>ActiveRecord::Base&#45;&gt;Client</title>
<path fill="none" stroke="black" d="M380.437,-176.292C388.789,-157.773 401.493,-129.603 409.771,-111.247"/>
</g>
<!-- ActiveRecord::Base&#45;&gt;Booking -->
<g id="edge14" class="edge"><title>ActiveRecord::Base&#45;&gt;Booking</title>
<path fill="none" stroke="black" d="M403.413,-177.304C439.232,-154.704 490.035,-113.745 467,-74 454.864,-53.0604 431.418,-39.4095 410.736,-30.9452"/>
</g>
</g>
</svg>
