<?xml version="1.0" encoding="UTF-8" standalone="no"?>
<!DOCTYPE svg PUBLIC "-//W3C//DTD SVG 1.1//EN"
 "http://www.w3.org/Graphics/SVG/1.1/DTD/svg11.dtd">
<!-- Generated by graphviz version 2.26.3 (20100126.1600)
 -->
<!-- Title: models_diagram Pages: 1 -->
<svg width="595pt" height="516pt"
 viewBox="0.00 0.00 594.95 516.00" xmlns="http://www.w3.org/2000/svg" xmlns:xlink="http://www.w3.org/1999/xlink">
<g id="graph1" class="graph" transform="scale(1 1) rotate(0) translate(4 512)">
<title>models_diagram</title>
<polygon fill="white" stroke="white" points="-4,5 -4,-512 591.953,-512 591.953,5 -4,5"/>
<!-- _diagram_info -->
<g id="node1" class="node"><title>_diagram_info</title>
<text text-anchor="start" x="17" y="-491.8" font-family="Times Roman,serif" font-size="13.00">Models diagram</text>
<text text-anchor="start" x="17" y="-474.8" font-family="Times Roman,serif" font-size="13.00">Date: Aug 05 2013 &#45; 17:03</text>
<text text-anchor="start" x="17" y="-457.8" font-family="Times Roman,serif" font-size="13.00">Migration version: 20130801072934</text>
<text text-anchor="start" x="17" y="-440.8" font-family="Times Roman,serif" font-size="13.00">Generated by RailRoady 1.1.1</text>
<text text-anchor="start" x="17" y="-423.8" font-family="Times Roman,serif" font-size="13.00">http://railroady.prestonlee.com</text>
</g>
<!-- User -->
<g id="node2" class="node"><title>User</title>
<polyline fill="none" stroke="black" points="12,-235 178,-235 "/>
<path fill="none" stroke="black" d="M178,-235C184,-235 190,-241 190,-247"/>
<polyline fill="none" stroke="black" points="190,-247 190,-365 "/>
<path fill="none" stroke="black" d="M190,-365C190,-371 184,-377 178,-377"/>
<polyline fill="none" stroke="black" points="178,-377 12,-377 "/>
<path fill="none" stroke="black" d="M12,-377C6,-377 0,-371 0,-365"/>
<polyline fill="none" stroke="black" points="0,-365 0,-247 "/>
<path fill="none" stroke="black" d="M0,-247C0,-241 6,-235 12,-235"/>
<text text-anchor="middle" x="95" y="-360.4" font-family="Times Roman,serif" font-size="14.00">User</text>
<polyline fill="none" stroke="black" points="0,-351 190,-351 "/>
<text text-anchor="start" x="8" y="-334.4" font-family="Times Roman,serif" font-size="14.00">id :integer</text>
<text text-anchor="start" x="8" y="-316.4" font-family="Times Roman,serif" font-size="14.00">email :string</text>
<text text-anchor="start" x="8" y="-298.4" font-family="Times Roman,serif" font-size="14.00">crypted_password :string</text>
<text text-anchor="start" x="8" y="-280.4" font-family="Times Roman,serif" font-size="14.00">salt :string</text>
<text text-anchor="start" x="8" y="-262.4" font-family="Times Roman,serif" font-size="14.00">created_at :datetime</text>
<text text-anchor="start" x="8" y="-244.4" font-family="Times Roman,serif" font-size="14.00">updated_at :datetime</text>
</g>
<!-- Booking -->
<g id="node5" class="node"><title>Booking</title>
<polyline fill="none" stroke="black" points="310.5,-1 451.5,-1 "/>
<path fill="none" stroke="black" d="M451.5,-1C457.5,-1 463.5,-7 463.5,-13"/>
<polyline fill="none" stroke="black" points="463.5,-13 463.5,-185 "/>
<path fill="none" stroke="black" d="M463.5,-185C463.5,-191 457.5,-197 451.5,-197"/>
<polyline fill="none" stroke="black" points="451.5,-197 310.5,-197 "/>
<path fill="none" stroke="black" d="M310.5,-197C304.5,-197 298.5,-191 298.5,-185"/>
<polyline fill="none" stroke="black" points="298.5,-185 298.5,-13 "/>
<path fill="none" stroke="black" d="M298.5,-13C298.5,-7 304.5,-1 310.5,-1"/>
<text text-anchor="middle" x="381" y="-180.4" font-family="Times Roman,serif" font-size="14.00">Booking</text>
<polyline fill="none" stroke="black" points="298.5,-171 463.5,-171 "/>
<text text-anchor="start" x="306.5" y="-154.4" font-family="Times Roman,serif" font-size="14.00">id :integer</text>
<text text-anchor="start" x="306.5" y="-136.4" font-family="Times Roman,serif" font-size="14.00">date :datetime</text>
<text text-anchor="start" x="306.5" y="-118.4" font-family="Times Roman,serif" font-size="14.00">user_id :integer</text>
<text text-anchor="start" x="306.5" y="-100.4" font-family="Times Roman,serif" font-size="14.00">client_id :integer</text>
<text text-anchor="start" x="306.5" y="-82.4" font-family="Times Roman,serif" font-size="14.00">created_at :datetime</text>
<text text-anchor="start" x="306.5" y="-64.4" font-family="Times Roman,serif" font-size="14.00">updated_at :datetime</text>
<text text-anchor="start" x="306.5" y="-46.4" font-family="Times Roman,serif" font-size="14.00">contract_num :string</text>
<text text-anchor="start" x="306.5" y="-28.4" font-family="Times Roman,serif" font-size="14.00">product :string</text>
<text text-anchor="start" x="306.5" y="-10.4" font-family="Times Roman,serif" font-size="14.00">info :text</text>
</g>
<!-- User&#45;&gt;Booking -->
<g id="edge2" class="edge"><title>User&#45;&gt;Booking</title>
<path fill="none" stroke="#4d9d86" d="M196.832,-232.296C227.198,-210.318 260.272,-186.38 289.904,-164.933"/>
<ellipse fill="none" stroke="#4d9d86" cx="193.474" cy="-234.727" rx="4.00002" ry="4.00002"/>
<polygon fill="#4d9d86" stroke="#4d9d86" points="290.065,-164.817 300.804,-162.599 294.116,-161.885 298.166,-158.953 298.166,-158.953 298.166,-158.953 294.116,-161.885 295.528,-155.308 290.065,-164.817 290.065,-164.817"/>
</g>
<!-- Page -->
<g id="node3" class="node"><title>Page</title>
<polyline fill="none" stroke="black" points="219.5,-244 360.5,-244 "/>
<path fill="none" stroke="black" d="M360.5,-244C366.5,-244 372.5,-250 372.5,-256"/>
<polyline fill="none" stroke="black" points="372.5,-256 372.5,-356 "/>
<path fill="none" stroke="black" d="M372.5,-356C372.5,-362 366.5,-368 360.5,-368"/>
<polyline fill="none" stroke="black" points="360.5,-368 219.5,-368 "/>
<path fill="none" stroke="black" d="M219.5,-368C213.5,-368 207.5,-362 207.5,-356"/>
<polyline fill="none" stroke="black" points="207.5,-356 207.5,-256 "/>
<path fill="none" stroke="black" d="M207.5,-256C207.5,-250 213.5,-244 219.5,-244"/>
<text text-anchor="middle" x="290" y="-351.4" font-family="Times Roman,serif" font-size="14.00">Page</text>
<polyline fill="none" stroke="black" points="207.5,-342 372.5,-342 "/>
<text text-anchor="start" x="215.5" y="-325.4" font-family="Times Roman,serif" font-size="14.00">id :integer</text>
<text text-anchor="start" x="215.5" y="-307.4" font-family="Times Roman,serif" font-size="14.00">slug :string</text>
<text text-anchor="start" x="215.5" y="-289.4" font-family="Times Roman,serif" font-size="14.00">name :string</text>
<text text-anchor="start" x="215.5" y="-271.4" font-family="Times Roman,serif" font-size="14.00">created_at :datetime</text>
<text text-anchor="start" x="215.5" y="-253.4" font-family="Times Roman,serif" font-size="14.00">updated_at :datetime</text>
</g>
<!-- Page&#45;&gt;Booking -->
<g id="edge6" class="edge"><title>Page&#45;&gt;Booking</title>
<path fill="none" stroke="#9615dc" d="M321.484,-234.383C325.456,-225.348 329.586,-215.954 333.735,-206.515"/>
<polygon fill="#9615dc" stroke="#9615dc" points="321.327,-234.739 313.183,-242.082 319.315,-239.316 317.303,-243.893 317.303,-243.893 317.303,-243.893 319.315,-239.316 321.423,-245.704 321.327,-234.739 321.327,-234.739"/>
<polygon fill="#9615dc" stroke="#9615dc" points="333.861,-206.227 342.005,-198.884 335.874,-201.65 337.886,-197.073 337.886,-197.073 337.886,-197.073 335.874,-201.65 333.766,-195.262 333.861,-206.227 333.861,-206.227"/>
</g>
<!-- Client -->
<g id="node4" class="node"><title>Client</title>
<polyline fill="none" stroke="black" points="401.5,-253 542.5,-253 "/>
<path fill="none" stroke="black" d="M542.5,-253C548.5,-253 554.5,-259 554.5,-265"/>
<polyline fill="none" stroke="black" points="554.5,-265 554.5,-347 "/>
<path fill="none" stroke="black" d="M554.5,-347C554.5,-353 548.5,-359 542.5,-359"/>
<polyline fill="none" stroke="black" points="542.5,-359 401.5,-359 "/>
<path fill="none" stroke="black" d="M401.5,-359C395.5,-359 389.5,-353 389.5,-347"/>
<polyline fill="none" stroke="black" points="389.5,-347 389.5,-265 "/>
<path fill="none" stroke="black" d="M389.5,-265C389.5,-259 395.5,-253 401.5,-253"/>
<text text-anchor="middle" x="472" y="-342.4" font-family="Times Roman,serif" font-size="14.00">Client</text>
<polyline fill="none" stroke="black" points="389.5,-333 554.5,-333 "/>
<text text-anchor="start" x="397.5" y="-316.4" font-family="Times Roman,serif" font-size="14.00">id :integer</text>
<text text-anchor="start" x="397.5" y="-298.4" font-family="Times Roman,serif" font-size="14.00">name :string</text>
<text text-anchor="start" x="397.5" y="-280.4" font-family="Times Roman,serif" font-size="14.00">created_at :datetime</text>
<text text-anchor="start" x="397.5" y="-262.4" font-family="Times Roman,serif" font-size="14.00">updated_at :datetime</text>
</g>
<!-- Client&#45;&gt;Booking -->
<g id="edge10" class="edge"><title>Client&#45;&gt;Booking</title>
<path fill="none" stroke="#b98286" d="M445.287,-245.236C439.914,-233.013 434.116,-219.825 428.28,-206.548"/>
<ellipse fill="none" stroke="#b98286" cx="447.074" cy="-249.299" rx="4.00002" ry="4.00002"/>
<polygon fill="#b98286" stroke="#b98286" points="428.262,-206.507 428.357,-195.542 426.25,-201.93 424.237,-197.353 424.237,-197.353 424.237,-197.353 426.25,-201.93 420.118,-199.164 428.262,-206.507 428.262,-206.507"/>
</g>
<!-- ActiveRecord::Base -->
<g id="node7" class="node"><title>ActiveRecord::Base</title>
<ellipse fill="none" stroke="black" cx="381" cy="-461" rx="104.151" ry="18.3848"/>
<text text-anchor="middle" x="381" y="-457.4" font-family="Times Roman,serif" font-size="14.00">ActiveRecord::Base</text>
</g>
<!-- ActiveRecord::Base&#45;&gt;User -->
<g id="edge4" class="edge"><title>ActiveRecord::Base&#45;&gt;User</title>
<path fill="none" stroke="black" d="M338.387,-444.099C300.818,-428.609 245.046,-404.163 199,-378 196.041,-376.318 193.058,-374.577 190.067,-372.788"/>
</g>
<!-- ActiveRecord::Base&#45;&gt;Page -->
<g id="edge8" class="edge"><title>ActiveRecord::Base&#45;&gt;Page</title>
<path fill="none" stroke="black" d="M370.023,-442.303C359.245,-423.945 342.198,-394.908 326.601,-368.343"/>
</g>
<!-- ActiveRecord::Base&#45;&gt;Client -->
<g id="edge12" class="edge"><title>ActiveRecord::Base&#45;&gt;Client</title>
<path fill="none" stroke="black" d="M391.977,-442.303C404.031,-421.771 423.928,-387.881 440.865,-359.031"/>
</g>
<!-- ActiveRecord::Base&#45;&gt;Booking -->
<g id="edge14" class="edge"><title>ActiveRecord::Base&#45;&gt;Booking</title>
<path fill="none" stroke="black" d="M453.506,-447.675C493.102,-436.301 538.864,-415.535 563,-378 597.615,-324.169 591.773,-291.167 563,-234 542.041,-192.358 501.489,-160.341 463.973,-137.962"/>
</g>
</g>
</svg>
